<?xml version="1.0" standalone="no"?>
<!DOCTYPE svg PUBLIC "-//W3C//DTD SVG 20010904//EN"
 "http://www.w3.org/TR/2001/REC-SVG-20010904/DTD/svg10.dtd">
<svg version="1.0" xmlns="http://www.w3.org/2000/svg"
 width="500.000000pt" height="500.000000pt" viewBox="0 0 500.000000 500.000000"
 preserveAspectRatio="xMidYMid meet">
<metadata>
Created by potrace 1.14, written by Peter Selinger 2001-2017
</metadata>
<g transform="translate(0.000000,500.000000) scale(0.100000,-0.100000)"
fill="#000000" stroke="none">
<path d="M0 2500 l0 -2500 2500 0 2500 0 0 2500 0 2500 -2500 0 -2500 0 0
-2500z m2651 2050 c131 -10 173 -18 332 -66 263 -80 561 -286 763 -527 72 -86
101 -125 182 -251 97 -149 239 -488 271 -646 17 -89 29 -142 40 -186 34 -135
28 -773 -8 -844 -5 -8 -11 -40 -15 -70 -16 -133 -102 -379 -193 -558 -116
-227 -215 -367 -371 -526 -259 -263 -563 -427 -882 -476 -41 -6 -91 -15 -110
-19 -19 -4 -46 -4 -60 0 -32 9 -148 9 -180 0 -14 -4 -41 -4 -60 0 -19 4 -80
15 -135 24 -111 18 -267 68 -394 126 -280 129 -574 412 -763 734 -210 357
-317 761 -317 1200 0 187 30 445 69 600 156 606 531 1102 1010 1333 112 54
262 112 292 112 9 0 37 7 60 15 35 12 161 25 309 34 14 0 86 -4 160 -9z"/>
<path d="M2425 4524 c-361 -31 -647 -153 -931 -398 -119 -102 -242 -238 -321
-356 -48 -72 -163 -267 -163 -276 0 -3 -10 -26 -21 -52 -12 -26 -33 -78 -46
-117 -14 -38 -29 -77 -34 -86 -29 -56 -108 -417 -109 -500 0 -20 -3 -39 -6
-42 -10 -10 -5 -438 5 -472 5 -16 12 -68 15 -115 9 -144 94 -442 178 -620 70
-149 95 -194 186 -330 125 -188 463 -510 535 -510 15 0 42 53 34 67 -3 4 2 64
10 133 28 238 43 601 27 644 -3 9 -18 16 -31 16 -37 0 -258 -67 -347 -105 -27
-12 -42 -13 -49 -6 -8 8 -8 14 0 22 18 18 280 109 313 109 11 0 38 7 60 16 40
16 41 17 38 63 l-3 46 -36 -3 c-19 -1 -60 -12 -90 -23 -30 -12 -65 -23 -79
-26 -64 -13 -236 -90 -312 -141 -30 -19 -42 -22 -51 -13 -17 17 13 41 118 94
129 66 224 100 403 147 35 9 43 15 40 32 -6 38 -30 44 -110 24 -40 -10 -77
-23 -83 -27 -5 -5 -17 -9 -26 -9 -10 0 -30 -5 -46 -12 -32 -13 -99 -39 -160
-62 -39 -14 -143 -68 -220 -112 -38 -22 -54 -12 -27 17 62 68 329 180 604 252
40 11 45 15 48 44 4 35 -26 89 -87 157 -34 38 -107 133 -125 164 -4 6 1 50 10
97 l18 84 -36 53 c-84 126 -108 166 -108 184 0 10 12 51 25 89 14 39 32 90 40
115 33 104 198 333 253 351 71 23 142 2 250 -77 20 -15 31 -15 140 -1 302 41
418 45 637 21 288 -31 266 -32 337 14 52 34 75 42 128 47 73 7 114 -10 147
-62 9 -15 39 -57 66 -92 79 -105 160 -283 173 -382 5 -40 1 -51 -45 -123 -27
-43 -62 -92 -76 -107 -19 -22 -23 -34 -16 -47 8 -15 31 -134 31 -159 0 -11
-106 -145 -168 -212 -31 -35 -52 -85 -52 -127 0 -17 8 -23 38 -28 20 -4 51
-11 67 -17 17 -5 77 -23 134 -40 113 -34 382 -157 419 -191 46 -44 9 -53 -51
-13 -59 41 -229 122 -288 139 -30 8 -73 22 -95 30 -56 20 -193 56 -217 56 -14
0 -18 -6 -15 -26 4 -33 10 -36 123 -69 115 -33 247 -87 337 -136 39 -22 74
-39 79 -39 13 0 30 -38 21 -44 -5 -3 -65 23 -133 58 -68 35 -149 71 -179 81
-30 10 -82 28 -115 40 -99 37 -128 39 -154 11 -16 -17 -20 -30 -16 -49 8 -29
24 -37 157 -72 96 -25 245 -79 262 -95 4 -5 5 -13 2 -19 -4 -6 -27 -2 -64 13
-66 28 -194 69 -270 87 -74 18 -77 12 -77 -124 0 -305 20 -668 41 -720 9 -24
21 -18 119 51 144 101 354 325 466 497 169 258 290 583 328 880 6 50 16 122
22 160 12 90 13 386 0 468 -5 34 -15 98 -21 142 -107 741 -594 1375 -1220
1588 -174 59 -409 94 -555 81z m105 -417 c0 -29 5 -58 12 -65 7 -7 41 -12 83
-12 133 0 129 -37 -5 -42 l-85 -3 -3 -297 c-2 -287 -3 -298 -22 -298 -30 0
-33 45 -28 332 4 180 2 261 -6 265 -6 4 -45 6 -88 4 -86 -3 -106 3 -87 25 8
10 35 14 95 14 97 0 105 7 97 83 -5 43 -4 47 16 47 19 0 21 -6 21 -53z"/>
<path d="M1717 3083 c-54 -56 -86 -112 -67 -115 3 -1 58 11 122 26 147 34 172
59 92 92 -48 20 -126 18 -147 -3z"/>
<path d="M3164 3089 c-17 -5 -38 -16 -45 -25 -11 -14 -11 -18 5 -29 23 -17
243 -71 252 -62 10 10 -12 49 -51 92 -29 31 -38 35 -81 34 -27 0 -63 -5 -80
-10z"/>
<path d="M2275 3039 c-44 -4 -100 -12 -124 -17 -31 -7 -51 -7 -68 1 -37 17
-48 -11 -48 -123 0 -107 -12 -140 -74 -198 -60 -57 -106 -75 -189 -75 l-73 1
-23 -47 c-54 -110 -57 -168 -11 -307 14 -43 30 -97 35 -119 4 -22 20 -85 34
-140 23 -92 29 -103 68 -137 49 -43 59 -44 181 -22 90 17 117 15 117 -9 0 -10
-19 -16 -65 -21 -64 -6 -115 -22 -115 -36 0 -4 11 -17 25 -30 14 -13 25 -29
25 -37 0 -20 21 -16 27 6 4 15 18 20 73 25 38 3 81 11 95 16 38 15 81 12 95
-5 7 -9 10 -18 7 -21 -12 -12 -92 -25 -118 -19 -15 3 -30 1 -34 -4 -3 -6 -22
-11 -41 -11 -45 0 -43 -14 5 -44 39 -25 124 -37 149 -22 14 8 52 -1 52 -13 0
-4 -11 -14 -25 -21 -14 -7 -25 -17 -25 -22 0 -4 23 -19 52 -34 41 -21 60 -25
95 -20 52 7 83 22 83 39 0 7 -24 36 -54 65 -46 45 -96 123 -96 150 0 18 65 84
101 102 48 25 146 27 192 4 50 -25 107 -85 107 -112 0 -13 -9 -35 -20 -49 -11
-14 -20 -32 -20 -39 0 -7 -22 -32 -50 -55 -72 -61 -65 -93 22 -105 37 -5 56
-2 93 17 25 13 49 27 52 32 10 17 -31 36 -64 31 -25 -5 -34 -2 -39 10 -9 25 2
31 32 17 16 -7 31 -8 36 -3 5 5 42 7 83 4 69 -4 77 -3 110 22 19 15 35 31 35
35 0 4 -46 14 -103 20 -57 7 -109 16 -116 21 -22 13 -2 30 36 30 56 0 216 -21
235 -30 11 -7 24 -2 42 15 14 13 26 28 26 33 0 16 -49 31 -137 42 -48 6 -92
15 -98 20 -6 5 -28 7 -48 3 -29 -4 -38 -2 -43 11 -4 9 -5 19 -2 21 9 10 69 5
188 -15 223 -36 213 -36 254 -4 43 35 46 40 97 234 55 208 66 248 80 295 11
38 9 48 -20 125 -18 47 -37 90 -43 97 -6 7 -36 12 -77 11 -113 -1 -200 53
-251 156 -22 43 -24 91 -8 201 3 18 -6 21 -82 32 -218 33 -447 41 -635 22z
m-92 -638 c53 -50 79 -104 84 -176 4 -74 -21 -150 -58 -178 -26 -18 -30 -19
-90 -3 -109 27 -189 102 -189 176 0 50 44 133 93 176 74 64 98 65 160 5z m810
-4 c56 -46 86 -99 93 -165 7 -57 -19 -101 -84 -145 -45 -30 -154 -56 -186 -44
-9 4 -28 30 -41 59 -54 116 -17 240 94 323 42 30 59 27 124 -28z m-762 -507
c5 0 9 -9 9 -19 0 -17 -8 -19 -60 -18 -38 0 -64 5 -71 14 -9 10 -5 13 22 13
19 0 41 5 49 10 8 5 21 8 28 5 8 -3 18 -5 23 -5z m112 -246 c11 -11 -5 -34
-23 -34 -27 0 -34 17 -13 29 21 12 28 13 36 5z"/>
<path d="M2042 2363 c-40 -42 -71 -106 -72 -143 0 -43 34 -84 97 -118 97 -51
126 -42 158 52 15 42 15 55 4 90 -47 151 -116 194 -187 119z"/>
<path d="M2863 2368 c-46 -48 -73 -107 -73 -156 0 -72 39 -142 80 -142 35 0
131 53 156 86 32 41 33 76 4 137 -51 109 -110 135 -167 75z"/>
<path d="M1898 2983 c-15 -18 -34 -50 -83 -138 -16 -27 -41 -72 -57 -100 -40
-71 -38 -75 34 -75 75 0 131 29 173 91 24 33 30 55 33 109 5 85 -14 130 -57
130 -15 0 -35 -8 -43 -17z"/>
<path d="M3049 2981 c-22 -17 -24 -27 -24 -98 0 -69 3 -83 27 -118 44 -64 89
-89 169 -93 84 -5 86 0 30 96 -21 37 -55 99 -75 137 -53 99 -79 115 -127 76z"/>
<path d="M1715 2946 c-89 -26 -136 -45 -147 -61 -24 -32 3 -109 54 -158 48
-47 64 -36 135 93 60 110 70 140 48 146 -5 1 -46 -8 -90 -20z"/>
<path d="M3204 2957 c-6 -17 8 -47 79 -169 33 -56 58 -88 68 -88 10 0 31 12
49 26 65 55 81 136 34 173 -15 12 -30 21 -35 21 -4 0 -20 5 -36 12 -33 13 -28
12 -78 21 -22 5 -48 10 -58 13 -10 3 -20 -1 -23 -9z"/>
<path d="M1510 2765 c-9 -11 -8 -23 9 -57 12 -24 31 -74 44 -112 12 -38 27
-71 33 -73 11 -4 58 100 52 115 -1 5 -31 39 -64 76 -52 56 -63 64 -74 51z"/>
<path d="M3461 2740 c-12 -22 -36 -50 -51 -62 -16 -11 -32 -28 -35 -36 -6 -17
39 -122 54 -122 5 0 19 33 31 73 13 39 26 77 30 82 14 20 29 76 24 90 -10 26
-30 16 -53 -25z"/>
<path d="M1472 2657 c-6 -7 -14 -32 -18 -55 -6 -38 -3 -47 42 -112 26 -38 51
-70 56 -70 19 0 22 7 25 48 1 30 -2 42 -11 42 -8 0 -26 32 -41 75 -30 82 -37
91 -53 72z"/>
<path d="M3509 2618 c-9 -24 -24 -64 -33 -89 -11 -30 -25 -50 -41 -57 -21 -10
-25 -19 -25 -52 0 -30 4 -40 16 -40 12 0 15 6 10 24 -3 14 -2 28 4 31 5 3 10
-1 10 -9 0 -28 17 -17 53 33 60 83 69 107 60 154 -12 57 -34 59 -54 5z"/>
<path d="M1580 2456 c0 -9 5 -16 10 -16 6 0 10 4 10 9 0 6 -4 13 -10 16 -5 3
-10 -1 -10 -9z"/>
<path d="M3440 2354 c0 -8 5 -12 10 -9 6 3 10 10 10 16 0 5 -4 9 -10 9 -5 0
-10 -7 -10 -16z"/>
<path d="M3416 2322 c-3 -6 -15 -41 -27 -79 -11 -37 -29 -98 -40 -136 -32
-103 -23 -107 47 -22 63 77 66 85 54 162 -11 68 -22 93 -34 75z"/>
<path d="M1579 2283 c-6 -15 -13 -49 -16 -74 -5 -43 -3 -48 46 -107 55 -66 71
-75 71 -39 0 35 -66 241 -79 245 -6 2 -16 -9 -22 -25z"/>
<path d="M3252 1878 c6 -18 28 -21 28 -4 0 9 -7 16 -16 16 -9 0 -14 -5 -12
-12z"/>
<path d="M2409 1847 c-18 -12 -40 -34 -48 -48 -14 -25 -12 -29 29 -87 42 -61
95 -102 128 -102 9 1 29 11 44 23 37 30 108 127 108 147 0 18 -42 61 -77 79
-12 6 -51 11 -86 11 -50 0 -71 -5 -98 -23z"/>
<path d="M1807 1783 c-12 -12 -7 -61 6 -66 22 -8 68 5 74 21 11 28 -59 67 -80
45z"/>
<path d="M3159 1772 c-28 -23 -20 -47 18 -55 37 -7 58 13 49 47 -8 31 -34 34
-67 8z"/>
<path d="M1895 1688 c-16 -5 -41 -13 -55 -17 -18 -4 -26 -14 -28 -34 -5 -43
15 -60 62 -54 73 9 159 32 163 44 5 14 -55 60 -87 66 -14 3 -38 1 -55 -5z"/>
<path d="M3015 1666 c-26 -22 -36 -38 -30 -44 15 -14 189 -46 209 -39 11 4 16
18 16 46 0 39 -1 40 -47 51 -98 24 -105 23 -148 -14z"/>
<path d="M3225 1670 c-3 -5 -1 -10 4 -10 6 0 11 5 11 10 0 6 -2 10 -4 10 -3 0
-8 -4 -11 -10z"/>
<path d="M2135 1610 c-3 -5 -1 -10 4 -10 6 0 11 5 11 10 0 6 -2 10 -4 10 -3 0
-8 -4 -11 -10z"/>
<path d="M2089 1590 c-8 -4 -61 -16 -119 -25 -58 -10 -118 -25 -134 -32 -27
-14 -28 -17 -20 -56 19 -91 0 -569 -27 -667 -18 -68 -23 -188 -8 -206 20 -24
166 -89 288 -128 210 -67 495 -84 716 -41 168 32 447 142 462 181 3 10 -1 63
-10 118 -20 121 -39 458 -36 649 2 162 4 158 -105 176 -39 6 -98 16 -132 22
l-60 11 -101 -51 c-55 -28 -104 -51 -109 -51 -5 0 -41 -13 -79 -30 -39 -16
-85 -30 -103 -30 -38 0 -230 76 -312 124 -64 37 -92 46 -111 36z"/>
<path d="M2468 1527 c-36 -29 -35 -39 2 -56 34 -14 64 -10 95 14 20 15 20 15
-10 40 -37 30 -52 31 -87 2z"/>
</g>
</svg>
